<svg width="23" height="26" viewBox="0 0 23 26" fill="none" xmlns="http://www.w3.org/2000/svg">
<path d="M15.6071 6.5C15.6071 5.42256 15.1744 4.38925 14.4042 3.62738C13.634 2.86551 12.5893 2.4375 11.5 2.4375C10.4107 2.4375 9.36605 2.86551 8.59581 3.62738C7.82557 4.38925 7.39286 5.42256 7.39286 6.5C7.39286 7.57744 7.82557 8.61075 8.59581 9.37262C9.36605 10.1345 10.4107 10.5625 11.5 10.5625C12.5893 10.5625 13.634 10.1345 14.4042 9.37262C15.1744 8.61075 15.6071 7.57744 15.6071 6.5ZM4.92857 6.5C4.92857 4.77609 5.62092 3.12279 6.8533 1.90381C8.08568 0.68482 9.75715 0 11.5 0C13.2429 0 14.9143 0.68482 16.1467 1.90381C17.3791 3.12279 18.0714 4.77609 18.0714 6.5C18.0714 8.22391 17.3791 9.87721 16.1467 11.0962C14.9143 12.3152 13.2429 13 11.5 13C9.75715 13 8.08568 12.3152 6.8533 11.0962C5.62092 9.87721 4.92857 8.22391 4.92857 6.5ZM2.53103 23.5625H20.469C20.0121 20.348 17.2192 17.875 13.8462 17.875H9.1538C5.7808 17.875 2.98795 20.348 2.53103 23.5625ZM0 24.4918C0 19.4898 4.09688 15.4375 9.1538 15.4375H13.8462C18.9031 15.4375 23 19.4898 23 24.4918C23 25.3246 22.3172 26 21.4752 26H1.52478C0.682813 26 0 25.3246 0 24.4918Z" fill="black"/>
</svg>
